<svg xmlns="http://www.w3.org/2000/svg" width="720" height="360">
<rect width="100%" height="100%" fill="white"/>
<text x="24" y="28" font-family="Georgia, serif" font-size="16">Quorum five-system comparison</text>
<text x="90" y="330" font-family="Helvetica, sans-serif" font-size="11" text-anchor="middle">Accuracy</text>
<rect x="50" y="176.25" width="22" height="123.75" fill="#1f4e5f"/>
<rect x="74" y="176.25" width="22" height="123.75" fill="#079187"/>
<rect x="98" y="286.25" width="22" height="13.75" fill="#c45c26"/>
<rect x="122" y="176.25" width="22" height="123.75" fill="#3d5a80"/>
<rect x="146" y="176.25" width="22" height="123.75" fill="#9b2226"/>
<text x="230" y="330" font-family="Helvetica, sans-serif" font-size="11" text-anchor="middle">F1</text>
<rect x="190" y="161.05263157894737" width="22" height="138.94736842105263" fill="#1f4e5f"/>
<rect x="214" y="141.6" width="22" height="158.4" fill="#079187"/>
<rect x="238" y="80.0" width="22" height="220.0" fill="#c45c26"/>
<rect x="262" y="132.38095238095238" width="22" height="167.61904761904762" fill="#3d5a80"/>
<rect x="286" y="135.00000000000003" width="22" height="164.99999999999997" fill="#9b2226"/>
<text x="370" y="330" font-family="Helvetica, sans-serif" font-size="11" text-anchor="middle">Coverage</text>
<rect x="330" y="80.0" width="22" height="220.0" fill="#1f4e5f"/>
<rect x="354" y="80.0" width="22" height="220.0" fill="#079187"/>
<rect x="378" y="286.25" width="22" height="13.75" fill="#c45c26"/>
<rect x="402" y="107.5" width="22" height="192.5" fill="#3d5a80"/>
<rect x="426" y="93.75" width="22" height="206.25" fill="#9b2226"/>
<text x="510" y="330" font-family="Helvetica, sans-serif" font-size="11" text-anchor="middle">Escalation</text>
<rect x="470" y="300.0" width="22" height="0.0" fill="#1f4e5f"/>
<rect x="494" y="300.0" width="22" height="0.0" fill="#079187"/>
<rect x="518" y="93.75" width="22" height="206.25" fill="#c45c26"/>
<rect x="542" y="272.5" width="22" height="27.5" fill="#3d5a80"/>
<rect x="566" y="286.25" width="22" height="13.75" fill="#9b2226"/>
<rect x="50" y="345" width="12" height="12" fill="#1f4e5f"/><text x="66" y="355" font-family="Helvetica, sans-serif" font-size="11">A</text>
<rect x="100" y="345" width="12" height="12" fill="#079187"/><text x="116" y="355" font-family="Helvetica, sans-serif" font-size="11">B</text>
<rect x="150" y="345" width="12" height="12" fill="#c45c26"/><text x="166" y="355" font-family="Helvetica, sans-serif" font-size="11">C</text>
<rect x="200" y="345" width="12" height="12" fill="#3d5a80"/><text x="216" y="355" font-family="Helvetica, sans-serif" font-size="11">D</text>
<rect x="250" y="345" width="12" height="12" fill="#9b2226"/><text x="266" y="355" font-family="Helvetica, sans-serif" font-size="11">E</text>
</svg>